<svg width="468" height="598" viewBox="0 0 468 598" fill="none" xmlns="http://www.w3.org/2000/svg">
<path d="M0 0.13916H197.792C197.792 83.5101 197.792 145.258 197.792 228.629H0L0 0.13916Z" fill="#D9D9D9"/>
<path d="M207.765 0.13916H345.72V298.631H207.765V0.13916Z" fill="#D9D9D9"/>
<path d="M356.94 163.392H467.886V298.631H356.94V163.392Z" fill="#D9D9D9"/>
<path d="M356.94 0.13916H467.886V149.765H356.94V0.13916Z" fill="#D9D9D9"/>
<path d="M192.806 311.189H374.807V449.326H192.806V311.189Z" fill="#D9D9D9"/>
<path d="M388.935 311.189H467.886V449.326H388.935V311.189Z" fill="#D9D9D9"/>
<path d="M268.432 461.884H467.886V597.124H268.432V461.884Z" fill="#D9D9D9"/>
<path d="M0 242.128H182.002V449.326H0V242.128Z" fill="#D9D9D9"/>
<path d="M0 461.884H255.966V597.124H0V461.884Z" fill="#D9D9D9"/>
</svg>
