<svg width="45" height="45" viewBox="0 0 45 45" fill="none" xmlns="http://www.w3.org/2000/svg">
<g clip-path="url(#clip0_2065_5)">
<path d="M7.96887 0.449951H37.0314C41.4376 0.449951 45 4.01245 45 8.41869V36.3562C45 40.7624 41.4376 44.325 37.0314 44.325H7.96887C3.56261 44.325 0.000106812 40.7624 0.000106812 36.3562V8.41869C0.000106812 4.01245 3.56261 0.449951 7.96887 0.449951Z" fill="#00005B"/>
<path d="M18.0751 26.6999H11.1001L9.67509 31.1249C9.6376 31.2937 9.48757 31.4062 9.31882 31.3874H5.79384C5.5876 31.3874 5.53135 31.2749 5.5876 31.0499L11.6251 13.7437C11.6813 13.5561 11.7376 13.3874 11.8126 13.1624C11.8876 12.7686 11.9251 12.3562 11.9251 11.9437C11.9063 11.8499 11.9813 11.7561 12.0751 11.7374H12.1313H16.9313C17.0626 11.7374 17.1563 11.7937 17.1751 11.8874L24.0188 31.0124C24.0751 31.2186 24.0188 31.3124 23.8313 31.3124H19.9126C19.7813 31.3311 19.6501 31.2374 19.6126 31.1061L18.0751 26.6061V26.6999ZM12.1876 22.9687H16.9501C16.8376 22.5749 16.6876 22.1061 16.5188 21.6187C16.3501 21.1124 16.1813 20.5687 16.0126 20.0062C15.8251 19.4249 15.6564 18.8624 15.4688 18.2811C15.2813 17.6999 15.1126 17.1561 14.9626 16.6124C14.8126 16.0874 14.6813 15.5999 14.5501 15.1499H14.5126C14.3438 15.9562 14.1376 16.7624 13.8751 17.5687C13.5938 18.4687 13.3126 19.4061 13.0126 20.3437C12.7688 21.2999 12.4688 22.1812 12.1876 22.9687Z" fill="#9999FF"/>
<path d="M35.0626 25.0124H29.1188C29.1938 25.5937 29.3813 26.1749 29.7001 26.6812C30.0376 27.1874 30.5063 27.5812 31.0688 27.8062C31.8188 28.1249 32.6438 28.2937 33.4688 28.2749C34.1251 28.2562 34.7813 28.1999 35.4188 28.0687C36.0001 27.9936 36.5626 27.8437 37.0876 27.6374C37.1813 27.5624 37.2376 27.5999 37.2376 27.7874V30.6562C37.2376 30.7312 37.2188 30.8061 37.2001 30.8812C37.1626 30.9374 37.1251 30.9749 37.0688 31.0124C36.4688 31.2749 35.8501 31.4624 35.1938 31.5749C34.3126 31.7437 33.4313 31.8186 32.5313 31.7999C31.1063 31.7999 29.9063 31.5749 28.9313 31.1436C28.0126 30.7499 27.2063 30.1311 26.5688 29.3624C25.9688 28.6312 25.5376 27.8062 25.2751 26.9062C25.0126 26.0249 24.8813 25.1062 24.8813 24.1686C24.8813 23.1561 25.0313 22.1624 25.3501 21.1874C25.6501 20.2499 26.1188 19.3874 26.7563 18.6187C27.3751 17.8686 28.1438 17.2687 29.0251 16.8374C29.9063 16.4061 30.9563 16.2562 32.1563 16.2562C33.1501 16.2374 34.1438 16.4249 35.0626 16.8374C35.8313 17.1749 36.5063 17.6812 37.0313 18.3374C37.5188 18.9749 37.9126 19.6874 38.1563 20.4749C38.4001 21.2249 38.5126 21.9937 38.5126 22.7624C38.5126 23.2124 38.4938 23.6061 38.4751 23.9624C38.4376 24.3187 38.4188 24.5812 38.4001 24.7499C38.3813 24.8812 38.2688 24.9937 38.1376 24.9937C38.0251 24.9937 37.8188 25.0124 37.5188 25.0312C37.2188 25.0686 36.8626 25.0874 36.4313 25.0874C36.0001 25.0874 35.5501 25.0124 35.0626 25.0124ZM29.1188 22.2749H33.0751C33.5626 22.2749 33.9188 22.2749 34.1438 22.2561C34.2938 22.2374 34.4438 22.1999 34.5751 22.1062V21.9186C34.5751 21.6749 34.5376 21.4499 34.4626 21.2249C34.1251 20.1749 33.1313 19.4624 32.0251 19.4999C30.9938 19.4436 30.0188 19.9874 29.5313 20.9249C29.3063 21.3561 29.1751 21.8061 29.1188 22.2749Z" fill="#9999FF"/>
</g>
<defs>
<clipPath id="clip0_2065_5">
<rect width="45" height="45" fill="white"/>
</clipPath>
</defs>
</svg>
