<svg width="45" height="45" viewBox="0 0 45 45" fill="none" xmlns="http://www.w3.org/2000/svg">
<rect width="45" height="45" rx="7" fill="#1C1C1C"/>
<rect x="0.1" y="0.1" width="44.8" height="44.8" rx="6.9" stroke="#DFDFDF" stroke-opacity="0.3" stroke-width="0.2"/>
<path d="M17.0521 41.1105C20.6251 41.1105 23.525 38.2105 23.525 34.6375V28.1647H17.0521C13.479 28.1647 10.5792 31.0645 10.5792 34.6375C10.5792 38.2105 13.479 41.1105 17.0521 41.1105Z" fill="#0ACF83"/>
<path d="M10.5792 22.1896C10.5792 18.8914 13.479 16.2146 17.0521 16.2146H23.525V28.1646H17.0521C13.479 28.1646 10.5792 25.4878 10.5792 22.1896Z" fill="#A259FF"/>
<path d="M10.5792 9.7417C10.5792 6.16867 13.479 3.2688 17.0521 3.2688H23.525V16.2146H17.0521C13.479 16.2146 10.5792 13.3148 10.5792 9.7417Z" fill="#F24E1E"/>
<path d="M23.525 3.2688H29.5C32.7982 3.2688 35.475 6.16867 35.475 9.7417C35.475 13.3148 32.7982 16.2146 29.5 16.2146H23.525V3.2688Z" fill="#FF7262"/>
<path d="M35.475 22.1896C35.475 25.4878 32.7982 28.1646 29.5 28.1646C26.2018 28.1646 23.525 25.4878 23.525 22.1896C23.525 18.8914 26.2018 16.2146 29.5 16.2146C32.7982 16.2146 35.475 18.8914 35.475 22.1896Z" fill="#1ABCFE"/>
</svg>
