<svg width="45" height="45" viewBox="0 0 45 45" fill="none" xmlns="http://www.w3.org/2000/svg">
<g clip-path="url(#clip0_2065_37)">
<path d="M45 0.000488281H0V45.0003H45V0.000488281Z" fill="#F7DF1E"/>
<path d="M30.2285 35.1566C31.135 36.6366 32.3142 37.7245 34.4 37.7245C36.1521 37.7245 37.2714 36.8487 37.2714 35.6387C37.2714 34.1887 36.1214 33.6752 34.1928 32.8316L33.1357 32.378C30.0843 31.078 28.0571 29.4495 28.0571 26.0066C28.0571 22.8352 30.4735 20.4209 34.2499 20.4209C36.9385 20.4209 38.8714 21.3566 40.2642 23.8066L36.9714 25.9209C36.2464 24.6209 35.4642 24.1087 34.2499 24.1087C33.0114 24.1087 32.2264 24.8945 32.2264 25.9209C32.2264 27.1895 33.0121 27.703 34.8264 28.4888L35.8835 28.9416C39.4764 30.4823 41.505 32.053 41.505 35.5845C41.505 39.3916 38.5142 41.4773 34.4978 41.4773C30.5707 41.4773 28.0335 39.6059 26.7921 37.153L30.2285 35.1566ZM15.2907 35.523C15.955 36.7016 16.5592 37.698 18.0121 37.698C19.4014 37.698 20.2778 37.1545 20.2778 35.0409V20.6623H24.5064V35.0981C24.5064 39.4766 21.9393 41.4695 18.1921 41.4695C14.8064 41.4695 12.8457 39.7173 11.8485 37.607L15.2907 35.523Z" fill="black"/>
</g>
<defs>
<clipPath id="clip0_2065_37">
<rect width="45" height="45" fill="white"/>
</clipPath>
</defs>
</svg>
