<svg width="45" height="45" viewBox="0 0 45 45" fill="none" xmlns="http://www.w3.org/2000/svg">
<g clip-path="url(#clip0_2065_56)">
<path d="M22.5655 0.123047L23.7663 2.37851C24.0363 2.79472 24.3288 3.16313 24.6733 3.50623C25.6833 4.50363 26.6247 5.5682 27.4912 6.69257C29.5259 9.36422 30.8983 12.3312 31.8784 15.54C32.4662 17.5002 32.7854 19.511 32.8093 21.5443C32.9077 27.623 30.8238 32.8427 26.6222 37.1806C25.9388 37.8685 25.2004 38.4996 24.4146 39.0676C23.9983 39.0676 23.8015 38.7485 23.6299 38.4546C23.3175 37.9096 23.1096 37.3111 23.0169 36.6898C22.8692 35.9544 22.7721 35.219 22.82 34.4597V34.1166C22.7862 34.0435 22.4192 0.296003 22.5655 0.123047Z" fill="#599636"/>
<path d="M22.5655 0.0486199C22.5162 -0.0498104 22.467 0.0247153 22.4178 0.0725243C22.4417 0.564675 22.2702 1.00339 22.0016 1.42242C21.7063 1.83864 21.3154 2.15784 20.9231 2.50094C18.7436 4.38799 17.028 6.66736 15.6542 9.2167C13.8262 12.6477 12.8841 16.3248 12.617 20.1959C12.4946 21.5922 13.0585 26.5193 13.4986 27.9409C14.6995 31.715 16.8565 34.8775 19.6505 37.6222C20.3367 38.2831 21.0707 38.8962 21.8301 39.4854C22.0508 39.4854 22.0747 39.2885 22.1254 39.1423C22.2221 38.8294 22.2959 38.5098 22.3461 38.1861L22.8383 34.5104L22.5655 0.0486199Z" fill="#6CAC48"/>
<path d="M23.7663 40.5611C23.8155 39.9986 24.0855 39.5318 24.3794 39.0664C24.0841 38.944 23.8648 38.7007 23.6932 38.4294C23.5453 38.1724 23.4228 37.9016 23.3276 37.6208C22.9845 36.5915 22.9114 35.5116 22.813 34.4598V33.8229C22.6906 33.9213 22.6653 34.7537 22.6653 34.8775C22.5937 35.9891 22.4462 37.0946 22.2238 38.1861C22.1507 38.6276 22.1014 39.0678 21.83 39.4601C21.83 39.5093 21.83 39.5585 21.854 39.6316C22.2955 40.9309 22.4164 42.2541 22.491 43.6025V44.0947C22.491 44.6825 22.4671 44.5588 22.955 44.7556C23.1518 44.8287 23.3712 44.854 23.5681 45.0005C23.7157 45.0005 23.7396 44.8779 23.7396 44.7795L23.6665 43.971V41.7155C23.6426 41.3218 23.7157 40.9309 23.7649 40.5625L23.7663 40.5611Z" fill="#C2BFBF"/>
</g>
<defs>
<clipPath id="clip0_2065_56">
<rect width="45" height="45" fill="white"/>
</clipPath>
</defs>
</svg>
