<svg width="45" height="45" viewBox="0 0 45 45" fill="none" xmlns="http://www.w3.org/2000/svg">
<g clip-path="url(#clip0_2065_30)">
<rect width="45" height="45" rx="10" fill="black"/>
<path d="M22.5 44.9996C34.9264 44.9996 45 34.9261 45 22.4996C45 10.0732 34.9264 -0.000366211 22.5 -0.000366211C10.0736 -0.000366211 0 10.0732 0 22.4996C0 34.9261 10.0736 44.9996 22.5 44.9996Z" fill="black"/>
<path d="M37.377 39.38L17.2855 13.4999H13.5V31.4924H16.5284V17.3458L34.9998 41.2112C35.8332 40.6533 36.6273 40.0412 37.377 39.38Z" fill="url(#paint0_linear_2065_30)"/>
<path d="M31.7501 13.4999H28.7501V31.4999H31.7501V13.4999Z" fill="url(#paint1_linear_2065_30)"/>
</g>
<defs>
<linearGradient id="paint0_linear_2065_30" x1="27.25" y1="29.1249" x2="36.125" y2="40.1249" gradientUnits="userSpaceOnUse">
<stop stop-color="white"/>
<stop offset="1" stop-color="white" stop-opacity="0"/>
</linearGradient>
<linearGradient id="paint1_linear_2065_30" x1="30.2501" y1="13.4999" x2="30.1999" y2="26.7187" gradientUnits="userSpaceOnUse">
<stop stop-color="white"/>
<stop offset="1" stop-color="white" stop-opacity="0"/>
</linearGradient>
<clipPath id="clip0_2065_30">
<rect width="45" height="45" rx="10" fill="white"/>
</clipPath>
</defs>
</svg>
