<svg width="45" height="45" viewBox="0 0 45 45" fill="none" xmlns="http://www.w3.org/2000/svg">
<g clip-path="url(#clip0_2065_9)">
<path d="M7.96873 0.450195H37.0313C41.4375 0.450195 45 4.01269 45 8.41893V36.3565C45 40.7627 41.4375 44.3252 37.0313 44.3252H7.96873C3.5625 44.3252 0 40.7627 0 36.3565V8.41893C0 4.01269 3.5625 0.450195 7.96873 0.450195Z" fill="#001E36"/>
<path d="M10.125 31.219V11.9252C10.125 11.794 10.1813 11.7189 10.3125 11.7189C10.6313 11.7189 10.9313 11.7189 11.3625 11.7002C11.8125 11.6815 12.2813 11.6815 12.7875 11.6627C13.2938 11.644 13.8375 11.644 14.4188 11.6252C15 11.6064 15.5625 11.6064 16.125 11.6064C17.6625 11.6064 18.9375 11.794 19.9875 12.1877C20.925 12.5064 21.7875 13.0315 22.5 13.7252C23.1 14.3252 23.5687 15.0565 23.8688 15.8627C24.15 16.6502 24.3 17.4564 24.3 18.3002C24.3 19.9127 23.925 21.244 23.175 22.2939C22.425 23.344 21.375 24.1315 20.1563 24.5815C18.8812 25.0502 17.475 25.2189 15.9375 25.2189C15.4875 25.2189 15.1875 25.2189 15 25.2002C14.8125 25.1815 14.55 25.1815 14.1938 25.1815V31.2002C14.2125 31.3315 14.1187 31.444 13.9875 31.4627C13.9688 31.4627 13.95 31.4627 13.9125 31.4627H10.35C10.2 31.4627 10.125 31.3877 10.125 31.219ZM14.2125 15.3377V21.6377C14.475 21.6565 14.7187 21.6752 14.9437 21.6752H15.9375C16.6688 21.6752 17.4 21.5627 18.0937 21.3377C18.6938 21.1689 19.2187 20.8127 19.6313 20.344C20.025 19.8752 20.2125 19.2377 20.2125 18.4127C20.2312 17.8315 20.0813 17.2502 19.7812 16.744C19.4625 16.2565 19.0125 15.8814 18.4688 15.6752C17.775 15.394 17.025 15.2815 16.2563 15.3002C15.7688 15.3002 15.3375 15.3002 14.9813 15.3189C14.6062 15.3002 14.3438 15.3189 14.2125 15.3377Z" fill="#31A8FF"/>
<path d="M36 20.494C35.4375 20.194 34.8375 19.9877 34.2 19.8565C33.5062 19.7065 32.8125 19.6127 32.1 19.6127C31.725 19.594 31.3313 19.6502 30.975 19.744C30.7312 19.8002 30.525 19.9315 30.3937 20.119C30.3 20.269 30.2437 20.4565 30.2437 20.6252C30.2437 20.794 30.3188 20.9627 30.4313 21.1127C30.6 21.319 30.825 21.4877 31.0687 21.619C31.5 21.844 31.95 22.0502 32.4 22.2377C33.4125 22.5752 34.3875 23.044 35.2875 23.6065C35.9062 24.0003 36.4125 24.5252 36.7687 25.1627C37.0688 25.7627 37.2187 26.419 37.2 27.094C37.2187 27.9752 36.9563 28.8565 36.4687 29.5877C35.9438 30.3377 35.2125 30.919 34.3688 31.2565C33.45 31.6503 32.325 31.8565 30.975 31.8565C30.1125 31.8565 29.2687 31.7815 28.425 31.6127C27.7687 31.5002 27.1125 31.294 26.5125 31.0127C26.3813 30.9377 26.2875 30.8065 26.3062 30.6565V27.394C26.3062 27.3377 26.325 27.2628 26.3813 27.2252C26.4375 27.1877 26.4938 27.2065 26.55 27.244C27.2813 27.6752 28.05 27.9752 28.875 28.1628C29.5875 28.3502 30.3375 28.444 31.0875 28.444C31.8 28.444 32.3062 28.3502 32.6437 28.1815C32.9437 28.0502 33.15 27.7315 33.15 27.394C33.15 27.1315 33 26.8877 32.7 26.644C32.4 26.4002 31.7813 26.119 30.8625 25.7627C29.9062 25.4252 29.025 24.9752 28.2 24.4127C27.6188 24.0003 27.1312 23.4565 26.775 22.819C26.475 22.219 26.325 21.5627 26.3437 20.9065C26.3437 20.1002 26.5687 19.3315 26.9812 18.6377C27.45 17.8877 28.1437 17.2877 28.95 16.9128C29.8312 16.4628 30.9375 16.2565 32.2687 16.2565C33.0375 16.2565 33.825 16.3127 34.5938 16.4252C35.1563 16.5002 35.7 16.6502 36.2062 16.8565C36.2813 16.8752 36.3562 16.9502 36.3938 17.0253C36.4125 17.1002 36.4312 17.1752 36.4312 17.2503V20.3065C36.4312 20.3815 36.3938 20.4565 36.3375 20.494C36.1688 20.5315 36.075 20.5315 36 20.494Z" fill="#31A8FF"/>
</g>
<defs>
<clipPath id="clip0_2065_9">
<rect width="45" height="45" fill="white"/>
</clipPath>
</defs>
</svg>
