<svg width="45" height="45" viewBox="0 0 45 45" fill="none" xmlns="http://www.w3.org/2000/svg">
<g clip-path="url(#clip0_2065_65)">
<path fill-rule="evenodd" clip-rule="evenodd" d="M4.39823 30.8876C3.94042 30.1655 3.93351 29.2457 4.3804 28.5167L21.2066 1.06963C22.1426 -0.456964 24.4024 -0.323482 25.1521 1.30265L40.5237 34.6473C41.0939 35.8845 40.4374 37.3402 39.1324 37.7317L15.2208 44.9052C14.2587 45.1935 13.2221 44.807 12.6843 43.9587L4.39823 30.8876ZM23.148 9.0949C23.3102 8.28747 24.4165 8.17105 24.7432 8.92701L35.3464 33.462C35.5458 33.924 35.2975 34.4568 34.8153 34.6006L18.2942 39.5324C17.6869 39.7136 17.1052 39.1831 17.23 38.5616L23.148 9.0949Z" fill="#2D3748"/>
</g>
<defs>
<clipPath id="clip0_2065_65">
<rect width="45" height="45" fill="white"/>
</clipPath>
</defs>
</svg>
