<svg width="45" height="45" viewBox="0 0 45 45" fill="none" xmlns="http://www.w3.org/2000/svg">
<path d="M42.3787 0.000244141L38.7639 40.4955L22.5151 45L6.31104 40.5019L2.70001 0.000244141H42.3787Z" fill="#264DE4"/>
<path d="M35.6692 37.917L38.7583 3.31189H22.5393V41.5571L35.6692 37.917Z" fill="#2965F1"/>
<path d="M10.9782 18.3334L11.4234 23.3007H22.5394V18.3334H10.9782Z" fill="#EBEBEB"/>
<path d="M22.5394 8.27917H22.5222H10.0836L10.5351 13.2466H22.5394V8.27917Z" fill="#EBEBEB"/>
<path d="M22.5393 36.402V31.2339L22.5176 31.2397L16.9854 29.7459L16.6317 25.7842H13.9435H11.6453L12.3412 33.5837L22.5165 36.4084L22.5393 36.402Z" fill="#EBEBEB"/>
<path d="M28.6389 23.3005L28.0624 29.7428L22.5222 31.2382V36.4061L32.7056 33.5838L32.7803 32.7445L33.9476 19.6671L34.0687 18.3333L34.9655 8.27917H22.5222V13.2466H29.5217L29.0697 18.3333H22.5222V23.3005H28.6389Z" fill="white"/>
</svg>
