<svg width="45" height="45" viewBox="0 0 45 45" fill="none" xmlns="http://www.w3.org/2000/svg">
<g clip-path="url(#clip0_2065_53)">
<path d="M20.8253 0.480332C21.9411 -0.158342 23.3944 -0.161227 24.5092 0.480332C30.1179 3.64949 35.7282 6.8137 41.3359 9.98476C42.3906 10.5789 43.0961 11.7527 43.0854 12.968V32.0349C43.0933 33.3006 42.318 34.5024 41.2053 35.0831C35.6151 38.2348 30.0278 41.3903 24.4386 44.542C23.2997 45.1931 21.8172 45.1431 20.7139 44.4385C19.038 43.4669 17.3592 42.5001 15.6831 41.5296C15.3406 41.3254 14.9545 41.1629 14.7127 40.8308C14.9265 40.5426 15.3087 40.5067 15.6193 40.3809C16.3189 40.1585 16.9614 39.8014 17.6041 39.4549C17.7666 39.3437 17.965 39.3863 18.1208 39.4858C19.5539 40.3075 20.9744 41.1531 22.4123 41.9669C22.7191 42.1441 23.0296 41.9089 23.2919 41.7628C28.7775 38.6624 34.27 35.5737 39.7547 32.4723C39.9579 32.3745 40.0703 32.1588 40.0538 31.9362C40.0576 25.6464 40.0547 19.3556 40.0557 13.0658C40.0789 12.8132 39.9328 12.5809 39.7044 12.4776C34.1336 9.34031 28.5657 6.19823 22.9959 3.06018C22.8993 2.99384 22.785 2.95824 22.6679 2.95807C22.5508 2.9579 22.4364 2.99316 22.3397 3.05922C16.7699 6.19823 11.2029 9.34319 5.6331 12.4803C5.40553 12.5839 5.25276 12.8122 5.27985 13.0658C5.28084 19.3556 5.27985 25.6464 5.27985 31.9372C5.27022 32.0457 5.29407 32.1547 5.3482 32.2494C5.40238 32.344 5.48424 32.4198 5.58279 32.4665C7.06909 33.3094 8.55738 34.1463 10.0447 34.9863C10.8825 35.4373 11.9113 35.7052 12.8344 35.3597C13.6491 35.0675 14.2201 34.2362 14.2046 33.3712C14.2123 27.1182 14.2008 20.8641 14.2104 14.6121C14.19 14.3345 14.4533 14.1051 14.7232 14.1312C15.4374 14.1264 16.1525 14.1217 16.8667 14.1332C17.1648 14.1264 17.3699 14.4254 17.3331 14.705C17.3302 20.9977 17.3407 27.2905 17.3282 33.5831C17.3302 35.2602 16.6412 37.085 15.0899 37.9055C13.1789 38.8955 10.8168 38.6856 8.92885 37.7363C7.29445 36.9205 5.73471 35.9578 4.12929 35.0839C3.01366 34.5064 2.24229 33.2998 2.25014 32.0351V12.968C2.23844 11.7275 2.97199 10.5324 4.05957 9.94696C9.64881 6.79268 15.237 3.63603 20.8253 0.480332Z" fill="#8CC84B"/>
<path d="M25.7013 13.688C28.139 13.5311 30.7487 13.595 32.9423 14.796C34.6407 15.7162 35.5823 17.6476 35.6122 19.5345C35.5648 19.789 35.2987 19.9294 35.0558 19.9119C34.3485 19.9109 33.6411 19.9215 32.9338 19.9071C32.6338 19.9186 32.4594 19.642 32.4217 19.3768C32.2185 18.474 31.7262 17.5798 30.8764 17.1444C29.572 16.4913 28.0595 16.5241 26.6372 16.5378C25.5988 16.5929 24.4822 16.6828 23.6024 17.2934C22.9271 17.756 22.7219 18.6897 22.963 19.4417C23.1902 19.9816 23.8135 20.1558 24.3235 20.3164C27.2612 21.0848 30.3743 21.0083 33.2559 22.0194C34.449 22.4316 35.6161 23.233 36.0244 24.4821C36.5586 26.1563 36.3244 28.1574 35.1333 29.5015C34.1674 30.6075 32.7605 31.2094 31.3574 31.5364C29.4907 31.9526 27.5536 31.9632 25.6579 31.7784C23.8754 31.5752 22.0204 31.1068 20.6444 29.8923C19.4677 28.8706 18.8929 27.2787 18.95 25.7422C18.9636 25.4827 19.222 25.3017 19.4705 25.3231C20.1828 25.3173 20.895 25.3154 21.6073 25.324C21.8917 25.3037 22.1026 25.5495 22.1172 25.8177C22.2487 26.6778 22.5719 27.5806 23.322 28.0906C24.7695 29.0245 26.5859 28.9605 28.2434 28.9867C29.6166 28.9257 31.158 28.9073 32.2786 27.9997C32.8698 27.482 33.045 26.616 32.8852 25.8709C32.7122 25.2418 32.0541 24.9487 31.489 24.757C28.5889 23.8396 25.4411 24.1725 22.569 23.1351C21.4031 22.723 20.2756 21.9439 19.8276 20.7461C19.2026 19.0508 19.489 16.9538 20.805 15.6551C22.0881 14.3634 23.9403 13.8661 25.7013 13.688Z" fill="#8CC84B"/>
</g>
<defs>
<clipPath id="clip0_2065_53">
<rect width="45" height="45" fill="white"/>
</clipPath>
</defs>
</svg>
