<svg width="45" height="45" viewBox="0 0 45 45" fill="none" xmlns="http://www.w3.org/2000/svg">
<g clip-path="url(#clip0_2065_25)">
<path d="M22.1205 25.8916C24.2986 25.8916 26.0644 24.3312 26.0644 22.4062C26.0644 20.4812 24.2986 18.9208 22.1205 18.9208C19.9423 18.9208 18.1766 20.4812 18.1766 22.4062C18.1766 24.3312 19.9423 25.8916 22.1205 25.8916Z" fill="#61DAFB"/>
<path d="M22.1205 29.875C33.0112 29.875 41.84 26.5311 41.84 22.4062C41.84 18.2814 33.0112 14.9375 22.1205 14.9375C11.2297 14.9375 2.401 18.2814 2.401 22.4062C2.401 26.5311 11.2297 29.875 22.1205 29.875Z" stroke="#61DAFB" stroke-width="5"/>
<path d="M15.0508 26.3713C20.9548 36.3054 28.906 42.5832 32.8105 40.3933C36.7149 38.2035 35.094 28.3751 29.1901 18.4411C23.2861 8.50702 15.3349 2.22917 11.4304 4.41905C7.52598 6.60893 9.14688 16.4373 15.0508 26.3713Z" stroke="#61DAFB" stroke-width="5"/>
<path d="M15.0508 18.4411C9.14692 28.3751 7.52596 38.2035 11.4304 40.3933C15.3349 42.5832 23.2862 36.3054 29.1901 26.3714C35.094 16.4373 36.7149 6.60894 32.8105 4.41905C28.9061 2.22917 20.9548 8.50702 15.0508 18.4411Z" stroke="#61DAFB" stroke-width="5"/>
</g>
<defs>
<clipPath id="clip0_2065_25">
<rect width="45" height="45" fill="white"/>
</clipPath>
</defs>
</svg>
