<svg width="45" height="45" viewBox="0 0 45 45" fill="none" xmlns="http://www.w3.org/2000/svg">
<g clip-path="url(#clip0_2065_47)">
<path d="M38.7485 25.2502C37.1786 25.2585 35.8142 25.6366 34.6717 26.1955C34.2525 25.3653 33.8333 24.6256 33.7593 24.0831C33.6771 23.4502 33.5785 23.0639 33.6771 22.3077C33.7758 21.5515 34.2196 20.4747 34.2114 20.3926C34.2032 20.3104 34.1127 19.9241 33.2086 19.9158C32.3045 19.9076 31.5237 20.0885 31.4332 20.3268C31.3428 20.5652 31.1702 21.1077 31.0551 21.6666C30.899 22.4885 29.2468 25.4228 28.3016 26.9599C27.9975 26.3598 27.7345 25.8338 27.6769 25.4146C27.5948 24.7817 27.4961 24.3954 27.5948 23.6392C27.6934 22.883 28.1372 21.8063 28.129 21.7241C28.1208 21.6419 28.0304 21.2556 27.1263 21.2474C26.2221 21.2392 25.4413 21.42 25.3508 21.6583C25.2604 21.8967 25.1618 22.4556 24.9727 22.9981C24.7837 23.5406 22.5891 28.4394 22.0138 29.7052C21.7179 30.3545 21.4631 30.8723 21.2823 31.2258C21.2823 31.2258 21.274 31.2504 21.2494 31.2915C21.0932 31.5956 21.0028 31.76 21.0028 31.76C21.0028 31.76 21.0028 31.76 21.0028 31.7683C20.8795 31.9901 20.748 32.1957 20.6822 32.1957C20.6329 32.1957 20.5425 31.6039 20.6986 30.7984C21.0275 29.0969 21.8083 26.4503 21.8001 26.3598C21.8001 26.3106 21.948 25.8503 21.2904 25.6119C20.6493 25.3735 20.4192 25.768 20.3617 25.768C20.3041 25.768 20.263 25.9078 20.263 25.9078C20.263 25.9078 20.9781 22.9324 18.8986 22.9324C17.5999 22.9324 15.8081 24.3543 14.9204 25.6366C14.3615 25.9407 13.1697 26.59 11.8957 27.2886C11.4107 27.5599 10.9093 27.8312 10.4408 28.0859C10.408 28.0531 10.3751 28.012 10.3422 27.9791C7.82703 25.2913 3.17485 23.3926 3.37212 19.7843C3.4461 18.4692 3.89816 15.017 12.3066 10.8252C19.2274 7.41407 24.7344 8.3593 25.6878 10.4553C27.0523 13.4471 22.7371 19.0035 15.5862 19.809C12.8574 20.1131 11.4272 19.061 11.0655 18.6665C10.6874 18.2555 10.6299 18.2309 10.4901 18.313C10.26 18.4363 10.408 18.8062 10.4901 19.0199C10.7038 19.5788 11.5833 20.5651 13.0711 21.0501C14.3861 21.4775 17.5835 21.7159 21.4548 20.2199C25.7865 18.5432 29.1729 13.8828 28.1783 9.97853C27.1838 6.01678 20.6082 4.70989 14.3861 6.92092C10.6874 8.23604 6.67633 10.3073 3.79131 13.0033C0.363809 16.2089 -0.178672 18.9953 0.0432522 20.1624C0.840537 24.305 6.55303 27.001 8.83804 28.9983C8.72298 29.0641 8.6161 29.1216 8.5257 29.1709C7.38319 29.738 3.0269 32.0148 1.94194 34.4231C0.709025 37.152 2.13921 39.1082 3.08444 39.3712C6.01879 40.1849 9.03528 38.7219 10.6545 36.3054C12.2737 33.8888 12.0765 30.749 11.3285 29.3106C11.3203 29.2942 11.3121 29.2778 11.2956 29.2613C11.5915 29.0887 11.8957 28.9079 12.1916 28.7353C12.7751 28.3901 13.3505 28.0695 13.8437 27.8065C13.5642 28.5709 13.3587 29.4832 13.2601 30.7984C13.1368 32.3436 13.7697 34.3491 14.5998 35.1382C14.9697 35.4834 15.4053 35.4916 15.6848 35.4916C16.6547 35.4916 17.0903 34.6861 17.5753 33.7327C18.1671 32.5655 18.7013 31.2093 18.7013 31.2093C18.7013 31.2093 18.0355 34.8752 19.8438 34.8752C20.5014 34.8752 21.1672 34.0204 21.4631 33.5847C21.4631 33.593 21.4631 33.593 21.4631 33.593C21.4631 33.593 21.4795 33.5683 21.5124 33.5107C21.5781 33.4039 21.6193 33.3382 21.6193 33.3382C21.6193 33.3382 21.6193 33.3299 21.6193 33.3217C21.8823 32.8614 22.4741 31.8176 23.3536 30.0833C24.4878 27.8476 25.581 25.053 25.581 25.053C25.581 25.053 25.6797 25.7352 26.0166 26.8695C26.2139 27.5352 26.6249 28.2668 26.9536 28.9736C26.6906 29.3435 26.5262 29.549 26.5262 29.549C26.5262 29.549 26.5262 29.549 26.5345 29.5572C26.3208 29.8367 26.0906 30.1408 25.8358 30.4367C24.9399 31.5052 23.8714 32.7299 23.7234 33.0833C23.5508 33.5026 23.5919 33.8067 23.9207 34.0533C24.1591 34.2341 24.5865 34.2587 25.0221 34.2341C25.8276 34.1765 26.3947 33.9793 26.6742 33.856C27.1098 33.6998 27.6194 33.4614 28.0962 33.108C28.9756 32.4587 29.5099 31.5299 29.4606 30.3052C29.4359 29.6312 29.214 28.9572 28.9427 28.3243C29.025 28.2092 29.0989 28.0941 29.1811 27.9791C30.5702 25.9489 31.6469 23.7214 31.6469 23.7214C31.6469 23.7214 31.7456 24.4036 32.0826 25.5379C32.247 26.1133 32.584 26.738 32.8798 27.3462C31.5729 28.4065 30.7674 29.6394 30.4798 30.4449C29.9619 31.9408 30.3647 32.6148 31.1291 32.771C31.4743 32.845 31.9675 32.6806 32.3292 32.5244C32.7894 32.3765 33.3319 32.1217 33.8497 31.7436C34.7292 31.0942 35.5758 30.1901 35.5265 28.9654C35.5018 28.4065 35.3539 27.8558 35.1484 27.3215C36.258 26.8612 37.6882 26.6064 39.5129 26.8201C43.4254 27.2804 44.198 29.7216 44.05 30.749C43.9021 31.7764 43.0802 32.3354 42.8089 32.508C42.5377 32.6806 42.4473 32.7381 42.4719 32.8614C42.5048 33.0422 42.6363 33.034 42.8665 33.0012C43.187 32.9436 44.9213 32.171 44.9953 30.2805C45.1188 27.864 42.8171 25.2256 38.7485 25.2502ZM8.56678 35.4259C7.26813 36.8396 5.45985 37.3739 4.67901 36.9218C3.84063 36.4369 4.1694 34.3491 5.76396 32.8532C6.73384 31.9408 7.98322 31.0942 8.81338 30.5764C9.00243 30.4614 9.28188 30.297 9.61888 30.0915C9.67644 30.0586 9.70929 30.0421 9.70929 30.0421C9.77503 30.0011 9.84082 29.96 9.90657 29.9189C10.4901 32.0559 9.93123 33.9381 8.56678 35.4259ZM18.0191 28.9983C17.5671 30.0997 16.6218 32.9189 16.0465 32.7628C15.5533 32.6313 15.2492 30.4942 15.9478 28.3818C16.3013 27.3215 17.0492 26.0557 17.4849 25.5626C18.1917 24.7735 18.9726 24.5105 19.1616 24.8311C19.4 25.2502 18.2986 28.3078 18.0191 28.9983ZM25.8194 32.7299C25.6303 32.8285 25.4495 32.8943 25.3673 32.845C25.3098 32.8121 25.4495 32.6806 25.4495 32.6806C25.4495 32.6806 26.4276 31.6285 26.8139 31.1518C27.0358 30.8723 27.2988 30.5435 27.5783 30.1737C27.5783 30.2065 27.5783 30.2477 27.5783 30.2805C27.5783 31.5381 26.3619 32.3847 25.8194 32.7299ZM31.836 31.3573C31.6962 31.2586 31.7209 30.9299 32.1894 29.9024C32.3703 29.4997 32.7977 28.8257 33.5292 28.1764C33.6114 28.4394 33.6689 28.6942 33.6607 28.9325C33.6525 30.5189 32.5182 31.1107 31.836 31.3573Z" fill="#CD6799"/>
</g>
<defs>
<clipPath id="clip0_2065_47">
<rect width="45" height="45" fill="white"/>
</clipPath>
</defs>
</svg>
