<svg width="45" height="45" viewBox="0 0 45 45" fill="none" xmlns="http://www.w3.org/2000/svg">
<path d="M22.5001 9.00024C16.4999 9.00024 12.75 11.9995 11.2498 17.9974C13.5001 14.9982 16.1252 13.8739 19.125 14.6234C20.8368 15.0511 22.0601 16.2929 23.4145 17.6671C25.6204 19.9055 28.1734 22.4963 33.7504 22.4963C39.75 22.4963 43.5005 19.497 45 13.4985C42.7504 16.4978 40.1253 17.6226 37.125 16.8731C35.4138 16.4454 34.1904 15.2035 32.836 13.8294C30.6302 11.5909 28.0766 9.00024 22.5001 9.00024ZM11.2498 22.4963C5.25021 22.4963 1.49975 25.4955 0.00012207 31.494C2.24984 28.4948 4.87491 27.3699 7.87528 28.12C9.58645 28.5482 10.8098 29.7896 12.1642 31.1632C14.3701 33.4016 16.9237 35.9929 22.5001 35.9929C28.5003 35.9929 32.2502 32.9936 33.7504 26.9952C31.5001 29.9944 28.8751 31.1192 25.8753 30.3692C24.1635 29.9421 22.9402 28.6996 21.5857 27.326C19.3799 25.0876 16.8269 22.4963 11.2498 22.4963Z" fill="#06B6D4"/>
</svg>
