<svg width="45" height="45" viewBox="0 0 45 45" fill="none" xmlns="http://www.w3.org/2000/svg">
<g clip-path="url(#clip0_2065_34)">
<path d="M0 0.000488281H45V45.0003H0V0.000488281Z" fill="#017ACB"/>
<path d="M21.6071 16.6643H23.7657V20.3909H17.9297V36.9706L17.775 37.0128C17.5641 37.069 14.7867 37.069 14.1891 37.0058L13.711 36.9636V20.3909H7.875V16.6643L9.72423 16.6433C10.7367 16.6292 13.3383 16.6292 15.5039 16.6433C17.6696 16.6573 20.4117 16.6643 21.6071 16.6643ZM38.0813 35.2128C37.2235 36.1198 36.3024 36.6261 34.7696 37.0409C34.1016 37.2237 33.9891 37.2308 32.4844 37.2237C30.9797 37.2167 30.8602 37.2167 30.1289 37.0268C28.2375 36.5417 26.7117 35.5924 25.6711 34.2495C25.3758 33.8698 24.8907 33.0823 24.8907 32.9839C24.8907 32.9558 24.961 32.8924 25.0524 32.8503C25.1438 32.8081 25.3336 32.6886 25.4883 32.5972C25.643 32.5058 25.9242 32.337 26.1141 32.2386C26.3039 32.1401 26.8524 31.8167 27.3305 31.5284C27.8087 31.2401 28.2446 31.0081 28.2938 31.0081C28.343 31.0081 28.4344 31.1065 28.5047 31.2261C28.9266 31.9362 29.911 32.8433 30.6071 33.1526C31.036 33.3354 31.9852 33.5393 32.4422 33.5393C32.8641 33.5393 33.6375 33.3565 34.0524 33.1667C34.4953 32.9628 34.7204 32.7589 34.9875 32.3511C35.1704 32.0628 35.1914 31.9854 35.1844 31.437C35.1844 30.9308 35.1563 30.7901 35.0157 30.5581C34.6219 29.9112 34.0875 29.5737 31.9219 28.6174C29.686 27.6261 28.6805 27.0354 27.8649 26.2409C27.2602 25.6503 27.1407 25.4886 26.761 24.7503C26.2688 23.8011 26.2055 23.4917 26.1985 22.0784C26.1914 21.087 26.2125 20.7636 26.318 20.4261C26.4657 19.9198 26.9438 18.9424 27.1617 18.6964C27.6117 18.169 27.7735 18.0073 28.0899 17.7472C29.0462 16.9597 30.5368 16.4393 31.9641 16.3901C32.1258 16.3901 32.6602 16.4183 33.1594 16.4534C34.5938 16.5729 35.5712 16.9245 36.5133 17.6768C37.2235 18.2393 38.2993 19.5612 38.1938 19.737C38.1235 19.8424 35.318 21.7128 35.1352 21.769C35.0227 21.8042 34.9454 21.762 34.7907 21.5792C33.8344 20.4331 33.4477 20.187 32.5196 20.1308C31.8587 20.0886 31.5071 20.1659 31.0641 20.4612C30.6 20.7706 30.375 21.2417 30.375 21.8956C30.3821 22.8518 30.7477 23.3018 32.0977 23.9698C32.9696 24.3987 33.7149 24.7503 33.7711 24.7503C33.8555 24.7503 35.6625 25.6503 36.1336 25.9315C38.3274 27.2183 39.2204 28.5401 39.4524 30.8183C39.6211 32.5339 39.136 34.1018 38.0813 35.2128Z" fill="white"/>
</g>
<defs>
<clipPath id="clip0_2065_34">
<rect width="45" height="45" fill="white"/>
</clipPath>
</defs>
</svg>
